<svg xmlns="http://www.w3.org/2000/svg" viewBox="59.8 -346.6 1457.4 1457.4">
  <path fill="#000000" d="M 334.631 168.632 C 331.773 171.573, 329.578 173.052, 328.618 172.684 C 327.594 172.291, 321.787 177.438, 310.583 188.670 C 299.689 199.593, 293.559 205.045, 292.592 204.674 C 291.636 204.307, 287.093 208.141, 279.568 215.666 C 268.178 227.056, 268.021 227.276, 268.613 230.980 C 269.113 234.109, 268.846 234.994, 267.015 236.277 L 264.816 237.817 264.950 274.251 C 265.063 305.053, 264.858 310.873, 263.627 311.895 C 262.553 312.786, 254.761 313.060, 233.965 312.937 C 204.551 312.763, 203.636 312.890, 204.709 316.994 C 204.987 318.059, 204.306 319.373, 202.999 320.288 C 200.887 321.767, 200.826 322.395, 200.826 342.500 C 200.826 362.665, 200.882 363.229, 203.020 364.726 C 204.822 365.989, 205.111 366.909, 204.638 369.881 C 203.602 376.401, 202.989 376.262, 231.968 376.067 L 258.167 375.891 263.561 381.195 C 268.368 385.923, 268.957 386.956, 268.977 390.693 C 268.994 393.787, 268.469 395.258, 266.976 396.304 C 264.972 397.708, 264.952 398.535, 264.952 478.500 C 264.952 558.949, 264.960 559.284, 267.013 560.722 C 269.044 562.144, 269.073 562.809, 268.957 604.682 L 268.838 647.198 271.005 648.716 C 272.416 649.704, 272.994 650.916, 272.661 652.189 C 272.326 653.468, 273.018 654.896, 274.660 656.322 C 276.774 658.156, 277.078 659.086, 276.581 662.205 C 276.081 665.342, 276.397 666.287, 278.637 668.364 C 280.278 669.886, 281.053 671.420, 280.676 672.401 C 280.301 673.379, 281.064 674.906, 282.676 676.401 C 284.288 677.895, 285.052 679.422, 284.676 680.401 C 284.301 681.379, 285.064 682.906, 286.676 684.401 C 288.254 685.863, 289.049 687.430, 288.690 688.367 C 288.287 689.415, 290.861 692.656, 296.671 698.414 C 302.288 703.980, 305.050 707.429, 304.674 708.407 C 303.904 710.412, 310.594 717.093, 312.601 716.323 C 313.575 715.949, 316.382 718.060, 320.588 722.328 C 324.865 726.669, 327.593 728.710, 328.601 728.323 C 329.582 727.947, 331.728 729.381, 334.591 732.327 C 337.518 735.339, 339.591 736.711, 340.617 736.317 C 341.574 735.950, 343.121 736.730, 344.599 738.324 C 346.094 739.936, 347.621 740.699, 348.599 740.324 C 349.578 739.948, 351.105 740.712, 352.599 742.324 C 354.094 743.936, 355.621 744.699, 356.599 744.324 C 357.578 743.948, 359.105 744.712, 360.599 746.324 C 362.094 747.936, 363.621 748.699, 364.599 748.324 C 365.575 747.949, 367.096 748.702, 368.567 750.288 C 370.742 752.634, 371.444 752.810, 376.560 752.282 C 381.670 751.754, 382.380 751.931, 384.541 754.261 C 386.708 756.598, 387.421 756.772, 392.811 756.283 C 398.182 755.796, 398.858 755.959, 400.358 758.101 C 401.935 760.352, 402.455 760.440, 412.393 760.150 C 422.111 759.867, 422.878 759.987, 424.308 762.029 C 425.774 764.123, 426.507 764.211, 442.500 764.211 C 458.493 764.211, 459.226 764.123, 460.692 762.029 C 462.122 759.987, 462.889 759.867, 472.607 760.150 C 482.545 760.440, 483.065 760.352, 484.642 758.101 C 486.144 755.957, 486.815 755.796, 492.227 756.287 C 497.654 756.779, 498.352 756.610, 500.333 754.327 C 502.155 752.226, 503.089 751.923, 506.205 752.419 C 509.344 752.919, 510.287 752.604, 512.371 750.356 C 514.629 747.921, 515.290 747.750, 520.419 748.279 L 526.007 748.856 530.439 744.296 C 533.330 741.321, 535.411 739.944, 536.427 740.334 C 537.373 740.697, 538.930 739.909, 540.401 738.324 C 541.846 736.765, 543.434 735.952, 544.348 736.303 C 546.064 736.962, 565 718.735, 565 716.425 C 565 715.686, 563.811 713.979, 562.358 712.631 C 560.739 711.130, 559.949 709.576, 560.317 708.617 C 560.711 707.591, 559.339 705.518, 556.327 702.591 C 553.363 699.710, 551.945 697.584, 552.327 696.591 C 552.708 695.598, 551.291 693.472, 548.327 690.591 C 545.363 687.710, 543.945 685.584, 544.327 684.591 C 544.708 683.598, 543.291 681.472, 540.327 678.591 C 537.418 675.764, 535.949 673.577, 536.315 672.621 C 536.686 671.655, 534.951 669.168, 531.500 665.717 L 526.105 660.323 520.015 660.493 C 514.921 660.635, 513.664 661.035, 512.331 662.938 C 510.979 664.868, 510.150 665.120, 506.872 664.595 C 503.543 664.063, 502.693 664.338, 500.753 666.574 C 498.834 668.786, 497.944 669.082, 494.753 668.574 C 491.562 668.066, 490.672 668.362, 488.753 670.574 C 486.841 672.777, 485.938 673.082, 482.795 672.581 C 479.656 672.081, 478.713 672.396, 476.629 674.644 C 474.366 677.085, 473.718 677.251, 468.521 676.714 C 463.406 676.186, 462.672 676.361, 460.756 678.566 L 458.639 681 432.500 681 L 406.361 681 404.177 678.489 C 402.332 676.366, 401.413 676.070, 398.247 676.574 C 395.065 677.081, 394.165 676.785, 392.275 674.607 C 390.884 673.003, 389.456 672.272, 388.461 672.653 C 387.402 673.060, 385.380 671.730, 382.409 668.673 C 379.597 665.780, 377.392 664.296, 376.446 664.659 C 374.366 665.457, 359.549 650.617, 360.348 648.536 C 360.694 647.635, 359.871 646.034, 358.324 644.599 C 356.712 643.105, 355.948 641.578, 356.324 640.599 C 356.699 639.621, 355.936 638.094, 354.324 636.599 C 352.679 635.074, 351.945 633.585, 352.337 632.565 C 352.730 631.541, 352.026 630.140, 350.415 628.739 L 347.874 626.529 348.094 608.219 C 348.307 590.473, 348.247 589.862, 346.157 588.397 C 344.034 586.910, 344 586.441, 344 558.500 C 344 531.065, 344.068 530.066, 346.039 528.685 C 348.044 527.281, 348.078 526.436, 348.078 478.500 C 348.078 430.564, 348.044 429.719, 346.039 428.315 C 344.175 427.009, 344 425.832, 344 414.624 C 344 402.791, 344.088 402.284, 346.499 400.188 C 349.765 397.348, 349.561 390.781, 346.131 388.379 L 343.904 386.819 349.202 381.415 L 354.500 376.011 420.862 376.060 C 457.361 376.087, 487.428 375.905, 487.677 375.657 C 487.925 375.408, 488.129 362.383, 488.129 346.712 L 488.129 318.220 485.465 315.556 L 482.801 312.892 416.544 312.972 C 346.586 313.056, 346.883 313.075, 348.565 308.692 C 348.934 307.730, 348.172 306.267, 346.582 304.884 L 344 302.639 344 250.376 L 344 198.113 346.154 196.605 C 348.129 195.222, 348.308 194.215, 348.308 184.500 C 348.308 174.659, 348.148 173.792, 346.068 172.335 C 344.627 171.325, 344.005 170.088, 344.325 168.865 C 344.867 166.794, 342.668 164, 340.495 164 C 339.746 164, 337.107 166.084, 334.631 168.632 M 1184.535 298.819 C 1182.580 301.068, 1182.082 301.131, 1168.234 300.884 C 1154.303 300.635, 1153.908 300.686, 1152.329 302.940 C 1150.861 305.037, 1150.160 305.202, 1144.773 304.713 C 1139.346 304.221, 1138.648 304.390, 1136.667 306.673 C 1134.838 308.782, 1133.916 309.078, 1130.753 308.574 C 1127.562 308.066, 1126.672 308.362, 1124.753 310.574 C 1122.841 312.777, 1121.938 313.082, 1118.795 312.581 C 1115.658 312.081, 1114.713 312.397, 1112.636 314.637 C 1111.131 316.260, 1109.576 317.051, 1108.617 316.683 C 1107.591 316.289, 1105.518 317.661, 1102.591 320.673 C 1099.710 323.637, 1097.584 325.055, 1096.591 324.673 C 1095.598 324.292, 1093.472 325.709, 1090.591 328.673 C 1087.715 331.633, 1085.584 333.054, 1084.594 332.674 C 1082.619 331.916, 1079.909 334.601, 1080.664 336.567 C 1081.051 337.575, 1077.730 341.569, 1070.671 348.585 C 1063.461 355.752, 1060.287 359.585, 1060.691 360.638 C 1061.049 361.569, 1060.250 363.141, 1058.676 364.599 C 1057.064 366.094, 1056.301 367.621, 1056.676 368.599 C 1057.053 369.580, 1056.278 371.114, 1054.637 372.636 C 1052.397 374.713, 1052.081 375.658, 1052.581 378.795 C 1053.077 381.911, 1052.774 382.845, 1050.673 384.667 C 1048.390 386.648, 1048.221 387.346, 1048.713 392.773 C 1049.195 398.085, 1049.020 398.873, 1047.052 400.251 C 1044.886 401.768, 1044.852 402.178, 1044.852 426.500 C 1044.852 450.757, 1044.892 451.236, 1047.033 452.735 C 1048.855 454.012, 1049.113 454.891, 1048.602 458.087 C 1048.078 461.361, 1048.371 462.263, 1050.637 464.364 C 1052.278 465.886, 1053.053 467.420, 1052.676 468.401 C 1052.301 469.379, 1053.064 470.906, 1054.676 472.401 C 1056.288 473.895, 1057.052 475.422, 1056.676 476.401 C 1056.301 477.379, 1057.064 478.906, 1058.676 480.401 C 1060.270 481.879, 1061.050 483.426, 1060.683 484.383 C 1060.289 485.409, 1061.661 487.482, 1064.673 490.409 C 1067.568 493.223, 1069.051 495.425, 1068.687 496.373 C 1068.301 497.379, 1072.594 502.357, 1081.693 511.457 C 1094.906 524.670, 1095.369 525.021, 1098.709 524.395 C 1101.833 523.809, 1102.546 524.165, 1106.598 528.334 C 1109.520 531.341, 1111.591 532.711, 1112.617 532.317 C 1113.574 531.950, 1115.121 532.730, 1116.599 534.324 C 1118.094 535.936, 1119.621 536.699, 1120.599 536.324 C 1121.578 535.948, 1123.105 536.712, 1124.599 538.324 C 1126.094 539.936, 1127.621 540.699, 1128.599 540.324 C 1129.580 539.947, 1131.114 540.722, 1132.636 542.363 C 1134.713 544.603, 1135.658 544.919, 1138.795 544.419 C 1141.938 543.918, 1142.841 544.223, 1144.753 546.426 C 1146.672 548.638, 1147.562 548.934, 1150.753 548.426 C 1153.944 547.918, 1154.834 548.214, 1156.753 550.426 C 1158.672 552.638, 1159.562 552.934, 1162.753 552.426 C 1165.923 551.921, 1166.837 552.217, 1168.686 554.349 C 1170.683 556.650, 1171.363 556.818, 1176.521 556.286 C 1181.718 555.749, 1182.366 555.915, 1184.629 558.356 C 1186.713 560.604, 1187.656 560.919, 1190.795 560.419 C 1193.917 559.922, 1194.844 560.226, 1196.686 562.349 C 1198.683 564.650, 1199.363 564.818, 1204.521 564.286 C 1209.684 563.753, 1210.374 563.924, 1212.560 566.282 C 1214.743 568.635, 1215.441 568.810, 1220.560 568.282 C 1225.679 567.753, 1226.378 567.928, 1228.560 570.282 C 1230.743 572.635, 1231.441 572.810, 1236.560 572.282 C 1241.724 571.749, 1242.366 571.915, 1244.655 574.384 C 1246.764 576.659, 1247.670 576.965, 1250.642 576.407 C 1253.849 575.806, 1254.518 576.136, 1258.598 580.334 C 1261.520 583.341, 1263.591 584.711, 1264.617 584.317 C 1265.574 583.950, 1267.121 584.730, 1268.599 586.324 C 1270.039 587.876, 1271.633 588.694, 1272.541 588.346 C 1274.659 587.533, 1285.455 598.372, 1284.641 600.493 C 1284.274 601.449, 1285.034 602.910, 1286.607 604.275 C 1288.785 606.165, 1289.081 607.065, 1288.574 610.247 C 1288.070 613.413, 1288.366 614.332, 1290.489 616.177 C 1292.661 618.066, 1293 619.190, 1293 624.500 C 1293 629.704, 1292.641 630.952, 1290.642 632.690 C 1288.453 634.593, 1288.319 635.289, 1288.774 642.375 L 1289.264 650.009 1275.653 663.620 C 1266.471 672.801, 1261.550 677.041, 1260.530 676.650 C 1259.636 676.307, 1258.027 677.136, 1256.599 678.676 C 1255.105 680.288, 1253.578 681.052, 1252.599 680.676 C 1251.620 680.301, 1250.092 681.066, 1248.593 682.683 C 1246.370 685.080, 1245.700 685.249, 1240.521 684.714 C 1235.406 684.186, 1234.672 684.361, 1232.756 686.566 L 1230.639 689 1208.500 689 L 1186.361 689 1184.244 686.566 C 1182.328 684.361, 1181.594 684.186, 1176.479 684.714 C 1171.270 685.252, 1170.638 685.089, 1168.345 682.616 C 1166.236 680.341, 1165.330 680.035, 1162.358 680.593 C 1159.151 681.194, 1158.482 680.864, 1154.402 676.666 C 1151.600 673.783, 1149.391 672.296, 1148.449 672.658 C 1146.365 673.458, 1127.549 654.618, 1128.349 652.533 C 1128.693 651.635, 1127.867 650.031, 1126.324 648.599 C 1124.712 647.105, 1123.948 645.578, 1124.324 644.599 C 1124.699 643.621, 1123.936 642.094, 1122.324 640.599 C 1120.679 639.074, 1119.945 637.585, 1120.337 636.565 C 1120.730 635.539, 1120.021 634.138, 1118.393 632.725 C 1116.224 630.843, 1115.920 629.929, 1116.419 626.795 C 1116.919 623.656, 1116.604 622.713, 1114.356 620.629 C 1111.938 618.387, 1111.752 617.688, 1112.262 612.749 C 1112.570 609.768, 1112.475 606.769, 1112.052 606.085 C 1111.475 605.151, 1105.604 604.840, 1088.542 604.840 C 1066.399 604.840, 1065.761 604.897, 1064.293 606.992 C 1062.853 609.048, 1062.141 609.132, 1048.317 608.885 C 1032.184 608.597, 1031.638 608.810, 1032.617 615 C 1033.077 617.904, 1032.731 618.882, 1030.585 620.743 C 1027.315 623.581, 1027.327 625.295, 1030.638 628.365 C 1033.151 630.696, 1033.252 631.173, 1032.779 638.535 C 1032.314 645.787, 1032.433 646.390, 1034.727 648.380 C 1036.780 650.160, 1037.075 651.100, 1036.574 654.247 C 1036.066 657.438, 1036.362 658.328, 1038.574 660.247 C 1040.777 662.159, 1041.082 663.062, 1040.581 666.205 C 1040.081 669.342, 1040.397 670.287, 1042.637 672.364 C 1044.260 673.869, 1045.051 675.424, 1044.683 676.383 C 1044.289 677.409, 1045.661 679.482, 1048.673 682.409 C 1051.670 685.322, 1053.056 687.411, 1052.666 688.427 C 1052.303 689.373, 1053.091 690.930, 1054.676 692.401 C 1056.260 693.869, 1057.050 695.429, 1056.687 696.373 C 1056.287 697.415, 1058.261 700.066, 1062.672 704.412 C 1066.940 708.618, 1069.051 711.425, 1068.677 712.399 C 1067.907 714.406, 1074.588 721.096, 1076.593 720.326 C 1077.571 719.950, 1081.020 722.712, 1086.586 728.329 C 1092.254 734.047, 1095.592 736.710, 1096.607 736.320 C 1097.580 735.947, 1099.740 737.393, 1102.591 740.327 C 1105.518 743.339, 1107.591 744.711, 1108.617 744.317 C 1109.576 743.949, 1111.131 744.740, 1112.636 746.363 C 1114.713 748.603, 1115.658 748.919, 1118.795 748.419 C 1121.938 747.918, 1122.841 748.223, 1124.753 750.426 C 1126.672 752.638, 1127.562 752.934, 1130.753 752.426 C 1133.900 751.925, 1134.840 752.220, 1136.620 754.273 C 1138.610 756.567, 1139.213 756.686, 1146.465 756.221 C 1153.716 755.755, 1154.330 755.877, 1156.488 758.203 C 1158.647 760.532, 1159.266 760.654, 1166.752 760.221 C 1174.093 759.796, 1174.839 759.932, 1176.255 761.954 C 1177.767 764.112, 1178.196 764.148, 1202.500 764.148 C 1226.634 764.148, 1227.243 764.098, 1228.711 762.002 C 1230.145 759.954, 1230.873 759.868, 1244.633 760.114 C 1258.704 760.365, 1259.090 760.316, 1260.671 758.060 C 1262.139 755.963, 1262.840 755.798, 1268.227 756.287 C 1273.654 756.779, 1274.352 756.610, 1276.333 754.327 C 1278.162 752.218, 1279.084 751.922, 1282.247 752.426 C 1285.438 752.934, 1286.328 752.638, 1288.247 750.426 C 1290.159 748.223, 1291.062 747.918, 1294.205 748.419 C 1297.342 748.919, 1298.287 748.603, 1300.364 746.363 C 1301.869 744.740, 1303.424 743.949, 1304.383 744.317 C 1305.409 744.711, 1307.482 743.339, 1310.409 740.327 C 1313.290 737.363, 1315.416 735.945, 1316.409 736.327 C 1317.402 736.708, 1319.528 735.291, 1322.409 732.327 C 1325.227 729.428, 1327.425 727.949, 1328.375 728.313 C 1330.453 729.111, 1349.111 710.453, 1348.313 708.375 C 1347.949 707.425, 1349.428 705.227, 1352.327 702.409 C 1355.339 699.482, 1356.711 697.409, 1356.317 696.383 C 1355.950 695.426, 1356.730 693.879, 1358.324 692.401 C 1359.936 690.906, 1360.699 689.379, 1360.324 688.401 C 1359.948 687.422, 1360.712 685.895, 1362.324 684.401 C 1363.936 682.906, 1364.699 681.379, 1364.324 680.401 C 1363.947 679.420, 1364.722 677.886, 1366.363 676.364 C 1368.603 674.287, 1368.919 673.342, 1368.419 670.205 C 1367.918 667.062, 1368.223 666.159, 1370.426 664.247 C 1372.662 662.307, 1372.937 661.457, 1372.405 658.128 C 1371.887 654.891, 1372.139 654.016, 1373.958 652.742 C 1376.100 651.241, 1376.129 650.843, 1376.129 622.500 C 1376.129 594.157, 1376.100 593.759, 1373.958 592.258 C 1372.139 590.984, 1371.887 590.109, 1372.405 586.872 C 1372.937 583.543, 1372.662 582.693, 1370.426 580.753 C 1368.223 578.841, 1367.918 577.938, 1368.419 574.795 C 1368.919 571.658, 1368.603 570.713, 1366.363 568.636 C 1364.689 567.083, 1363.944 565.588, 1364.337 564.565 C 1364.730 563.539, 1364.021 562.138, 1362.393 560.725 C 1360.233 558.850, 1359.921 557.923, 1360.412 554.838 C 1360.975 551.307, 1360.687 550.869, 1352.374 542.631 C 1346.726 537.034, 1343.950 533.572, 1344.326 532.593 C 1345.100 530.577, 1338.405 523.907, 1336.386 524.682 C 1335.422 525.052, 1333.247 523.594, 1330.409 520.673 C 1327.528 517.709, 1325.402 516.292, 1324.409 516.673 C 1323.416 517.055, 1321.290 515.637, 1318.409 512.673 C 1315.482 509.661, 1313.409 508.289, 1312.383 508.683 C 1311.426 509.050, 1309.879 508.270, 1308.401 506.676 C 1306.906 505.064, 1305.379 504.301, 1304.401 504.676 C 1303.422 505.052, 1301.895 504.288, 1300.401 502.676 C 1298.906 501.064, 1297.379 500.301, 1296.401 500.676 C 1295.420 501.053, 1293.886 500.278, 1292.364 498.637 C 1290.287 496.397, 1289.342 496.081, 1286.205 496.581 C 1283.062 497.082, 1282.159 496.777, 1280.247 494.574 C 1278.328 492.362, 1277.438 492.066, 1274.247 492.574 C 1271.056 493.082, 1270.166 492.786, 1268.247 490.574 C 1266.328 488.362, 1265.438 488.066, 1262.247 488.574 C 1259.056 489.082, 1258.166 488.786, 1256.247 486.574 C 1254.328 484.362, 1253.438 484.066, 1250.247 484.574 C 1247.077 485.079, 1246.163 484.783, 1244.314 482.651 C 1242.317 480.350, 1241.637 480.182, 1236.479 480.714 C 1231.316 481.247, 1230.626 481.076, 1228.440 478.718 C 1226.257 476.365, 1225.559 476.190, 1220.440 476.718 C 1215.287 477.250, 1214.631 477.081, 1212.371 474.644 C 1210.287 472.396, 1209.344 472.081, 1206.205 472.581 C 1203.083 473.078, 1202.156 472.774, 1200.314 470.651 C 1198.317 468.350, 1197.637 468.182, 1192.479 468.714 C 1187.282 469.251, 1186.634 469.085, 1184.371 466.644 C 1182.287 464.396, 1181.344 464.081, 1178.205 464.581 C 1175.054 465.083, 1174.159 464.778, 1172.222 462.545 C 1170.277 460.304, 1169.425 460.017, 1166.400 460.585 C 1163.142 461.196, 1162.499 460.881, 1158.402 456.666 C 1155.480 453.659, 1153.409 452.289, 1152.383 452.683 C 1151.426 453.050, 1149.879 452.270, 1148.401 450.676 C 1146.966 449.129, 1145.365 448.306, 1144.464 448.652 C 1143.461 449.037, 1140.364 446.654, 1135.356 441.646 C 1128.127 434.418, 1127.798 433.891, 1128.423 430.557 C 1128.978 427.603, 1128.684 426.712, 1126.540 424.848 C 1124.336 422.931, 1124 421.828, 1124 416.500 C 1124 411.172, 1124.336 410.069, 1126.540 408.152 C 1128.684 406.288, 1128.978 405.397, 1128.423 402.443 C 1127.798 399.109, 1128.127 398.582, 1135.356 391.354 C 1140.364 386.346, 1143.461 383.963, 1144.464 384.348 C 1145.365 384.694, 1146.966 383.871, 1148.401 382.324 C 1149.926 380.679, 1151.415 379.945, 1152.435 380.337 C 1153.461 380.730, 1154.862 380.021, 1156.275 378.393 C 1158.165 376.215, 1159.065 375.919, 1162.247 376.426 C 1165.413 376.930, 1166.332 376.634, 1168.177 374.511 L 1170.361 372 1200.500 372 L 1230.639 372 1232.794 374.478 C 1234.154 376.042, 1235.546 376.728, 1236.565 376.337 C 1237.590 375.944, 1239.090 376.696, 1240.661 378.390 C 1242.754 380.647, 1243.679 380.963, 1246.595 380.416 C 1249.915 379.793, 1250.426 380.144, 1259.641 389.359 C 1266.171 395.889, 1269.043 399.446, 1268.638 400.501 C 1268.275 401.447, 1269.042 402.917, 1270.607 404.275 C 1272.785 406.165, 1273.081 407.065, 1272.574 410.247 C 1272.066 413.438, 1272.362 414.328, 1274.574 416.247 C 1276.760 418.143, 1277.080 419.073, 1276.594 422.123 C 1276.063 425.458, 1276.427 426.162, 1281.180 430.991 L 1286.342 436.235 1300.745 436.235 C 1314.408 436.235, 1315.225 436.123, 1316.673 434.056 C 1318.165 431.926, 1318.659 431.882, 1338.621 432.084 C 1349.853 432.198, 1359.301 432.032, 1359.617 431.717 C 1359.932 431.401, 1360.190 422.746, 1360.190 412.482 C 1360.190 394.385, 1360.124 393.775, 1357.988 392.279 C 1356.143 390.987, 1355.885 390.118, 1356.398 386.913 C 1356.922 383.639, 1356.629 382.737, 1354.363 380.636 C 1352.722 379.114, 1351.947 377.580, 1352.324 376.599 C 1352.699 375.621, 1351.936 374.094, 1350.324 372.599 C 1348.712 371.105, 1347.948 369.578, 1348.324 368.599 C 1348.699 367.621, 1347.936 366.094, 1346.324 364.599 C 1344.768 363.157, 1343.953 361.566, 1344.302 360.655 C 1345.122 358.518, 1310.482 323.878, 1308.345 324.698 C 1307.434 325.047, 1305.843 324.232, 1304.401 322.676 C 1302.930 321.091, 1301.373 320.303, 1300.427 320.666 C 1299.410 321.057, 1297.310 319.658, 1294.368 316.631 C 1290.228 312.371, 1289.568 312.045, 1286.182 312.584 C 1283.065 313.081, 1282.154 312.773, 1280.247 310.574 C 1278.328 308.362, 1277.438 308.066, 1274.247 308.574 C 1271.056 309.082, 1270.166 308.786, 1268.247 306.574 C 1266.307 304.338, 1265.457 304.063, 1262.128 304.595 C 1258.858 305.118, 1258.020 304.867, 1256.685 302.961 C 1255.128 300.737, 1254.850 300.711, 1234.654 300.916 C 1214.660 301.118, 1214.165 301.074, 1212.674 298.945 C 1211.257 296.921, 1210.271 296.757, 1198.849 296.633 C 1187.150 296.506, 1186.453 296.613, 1184.535 298.819"/>
  <path fill="#000000" d="M 560.986 280.750 C 560.979 435.163, 560.715 562.459, 560.401 563.630 C 559.997 565.136, 560.627 566.501, 562.552 568.286 C 565.167 570.710, 565.255 571.119, 564.779 578.535 C 564.314 585.787, 564.433 586.390, 566.727 588.380 C 568.772 590.154, 569.075 591.106, 568.581 594.205 C 568.081 597.342, 568.397 598.287, 570.637 600.364 C 572.311 601.917, 573.056 603.412, 572.663 604.435 C 572.270 605.461, 572.979 606.862, 574.607 608.275 C 576.776 610.157, 577.080 611.071, 576.581 614.205 C 576.081 617.342, 576.397 618.287, 578.637 620.364 C 580.260 621.869, 581.051 623.424, 580.683 624.383 C 580.289 625.409, 581.661 627.482, 584.673 630.409 C 587.670 633.322, 589.056 635.411, 588.666 636.427 C 588.303 637.373, 589.091 638.930, 590.676 640.401 C 592.288 641.895, 593.052 643.422, 592.676 644.401 C 592.301 645.379, 593.064 646.906, 594.676 648.401 C 596.260 649.869, 597.050 651.429, 596.687 652.373 C 596.287 653.415, 598.261 656.066, 602.672 660.412 C 606.899 664.577, 609.049 667.429, 608.683 668.384 C 607.890 670.451, 646.549 709.110, 648.616 708.317 C 649.571 707.951, 652.423 710.101, 656.588 714.328 C 660.934 718.739, 663.585 720.713, 664.627 720.313 C 665.571 719.950, 667.131 720.740, 668.599 722.324 C 670.070 723.909, 671.627 724.697, 672.573 724.334 C 673.589 723.944, 675.678 725.330, 678.591 728.327 C 681.518 731.339, 683.591 732.711, 684.617 732.317 C 685.576 731.949, 687.131 732.740, 688.636 734.363 C 690.713 736.603, 691.658 736.919, 694.795 736.419 C 697.929 735.920, 698.843 736.224, 700.725 738.393 C 702.138 740.021, 703.539 740.730, 704.565 740.337 C 705.588 739.944, 707.083 740.689, 708.636 742.363 C 710.713 744.603, 711.658 744.919, 714.795 744.419 C 717.894 743.925, 718.846 744.228, 720.620 746.273 C 722.610 748.567, 723.213 748.686, 730.465 748.221 C 737.766 747.752, 738.319 747.865, 740.551 750.272 C 742.707 752.596, 743.427 752.772, 748.811 752.283 C 754.068 751.807, 754.877 751.986, 756.237 753.928 C 757.756 756.097, 757.943 756.108, 792.500 756.108 C 827.031 756.108, 827.245 756.095, 828.759 753.934 C 830.159 751.936, 830.927 751.797, 838.248 752.221 C 845.743 752.654, 846.351 752.534, 848.523 750.192 C 850.612 747.939, 851.363 747.758, 856.440 748.282 C 861.559 748.810, 862.257 748.635, 864.440 746.282 C 866.622 743.928, 867.321 743.753, 872.440 744.282 C 877.556 744.810, 878.258 744.634, 880.433 742.288 C 881.888 740.720, 883.429 739.951, 884.383 740.317 C 885.409 740.711, 887.482 739.339, 890.409 736.327 C 893.322 733.330, 895.411 731.944, 896.427 732.334 C 897.373 732.697, 898.930 731.909, 900.401 730.324 C 901.879 728.730, 903.426 727.950, 904.383 728.317 C 905.409 728.711, 907.482 727.339, 910.409 724.327 C 913.322 721.330, 915.411 719.944, 916.427 720.334 C 917.373 720.697, 918.930 719.909, 920.401 718.324 C 921.859 716.750, 923.431 715.951, 924.362 716.309 C 925.415 716.713, 929.248 713.539, 936.415 706.329 C 943.295 699.407, 947.434 695.953, 948.403 696.324 C 950.432 697.103, 965.101 682.427, 964.322 680.398 C 963.952 679.431, 966.747 675.946, 972.329 670.414 C 978.047 664.746, 980.710 661.408, 980.320 660.393 C 979.947 659.420, 981.393 657.260, 984.327 654.409 C 987.339 651.482, 988.711 649.409, 988.317 648.383 C 987.950 647.426, 988.730 645.879, 990.324 644.401 C 991.936 642.906, 992.699 641.379, 992.324 640.401 C 991.948 639.422, 992.712 637.895, 994.324 636.401 C 995.936 634.906, 996.699 633.379, 996.324 632.401 C 995.948 631.422, 996.712 629.895, 998.324 628.401 C 999.936 626.906, 1000.699 625.379, 1000.324 624.401 C 999.947 623.420, 1000.722 621.886, 1002.363 620.364 C 1004.603 618.287, 1004.919 617.342, 1004.419 614.205 C 1003.918 611.062, 1004.223 610.159, 1006.426 608.247 C 1008.638 606.328, 1008.934 605.438, 1008.426 602.247 C 1007.921 599.080, 1008.218 598.163, 1010.340 596.322 C 1011.982 594.896, 1012.674 593.468, 1012.339 592.189 C 1012.002 590.901, 1012.598 589.695, 1014.084 588.654 C 1016.288 587.110, 1016.335 586.692, 1016.102 570.641 C 1015.873 554.842, 1015.946 554.151, 1018.006 552.709 C 1020.097 551.244, 1020.148 550.622, 1020.148 526.500 C 1020.148 502.196, 1020.112 501.767, 1017.954 500.255 C 1015.932 498.839, 1015.796 498.093, 1016.221 490.752 C 1016.654 483.266, 1016.532 482.647, 1014.203 480.488 C 1011.878 478.332, 1011.755 477.713, 1012.218 470.502 C 1012.682 463.276, 1012.561 462.674, 1010.214 460.498 C 1008.651 459.049, 1007.948 457.577, 1008.337 456.565 C 1008.730 455.539, 1008.021 454.138, 1006.393 452.725 C 1004.224 450.843, 1003.920 449.929, 1004.419 446.795 C 1004.919 443.658, 1004.603 442.713, 1002.363 440.636 C 1000.722 439.114, 999.947 437.580, 1000.324 436.599 C 1000.699 435.621, 999.936 434.094, 998.324 432.599 C 996.712 431.105, 995.948 429.578, 996.324 428.599 C 996.699 427.621, 995.936 426.094, 994.324 424.599 C 992.712 423.105, 991.948 421.578, 992.324 420.599 C 992.699 419.621, 991.936 418.094, 990.324 416.599 C 988.730 415.121, 987.950 413.574, 988.317 412.617 C 988.711 411.591, 987.339 409.518, 984.327 406.591 C 981.330 403.678, 979.944 401.589, 980.334 400.573 C 980.697 399.627, 979.909 398.070, 978.324 396.599 C 976.769 395.158, 975.953 393.565, 976.302 392.655 C 977.109 390.552, 934.487 347.876, 932.384 348.683 C 931.429 349.049, 928.576 346.898, 924.412 342.672 C 920.066 338.261, 917.415 336.287, 916.373 336.687 C 915.429 337.050, 913.869 336.260, 912.401 334.676 C 910.906 333.064, 909.379 332.301, 908.401 332.676 C 907.422 333.052, 905.895 332.288, 904.401 330.676 C 902.906 329.064, 901.379 328.301, 900.401 328.676 C 899.422 329.052, 897.895 328.288, 896.401 326.676 C 894.906 325.064, 893.379 324.301, 892.401 324.676 C 891.422 325.052, 889.895 324.288, 888.401 322.676 C 886.906 321.064, 885.379 320.301, 884.401 320.676 C 883.420 321.053, 881.886 320.278, 880.364 318.637 C 878.287 316.397, 877.342 316.081, 874.205 316.581 C 871.083 317.078, 870.156 316.774, 868.314 314.651 C 866.317 312.350, 865.637 312.182, 860.479 312.714 C 855.359 313.243, 854.615 313.065, 852.523 310.808 C 850.351 308.466, 849.743 308.346, 842.248 308.779 C 834.933 309.203, 834.158 309.063, 832.763 307.072 C 831.248 304.910, 831.117 304.902, 792.500 304.902 C 754.156 304.902, 753.741 304.924, 752.271 307.023 C 750.859 309.039, 750.076 309.131, 736.367 308.886 C 722.329 308.635, 721.906 308.689, 720.343 310.921 C 718.983 312.863, 718.152 313.120, 714.913 312.602 C 711.639 312.078, 710.737 312.371, 708.636 314.637 C 707.186 316.200, 705.564 317.047, 704.673 316.705 C 703.783 316.363, 701.879 317.355, 700.025 319.126 L 696.886 322.127 696.886 354.679 C 696.886 386.823, 696.913 387.250, 699.029 388.733 C 700.390 389.686, 700.991 390.928, 700.675 392.135 C 700.130 394.217, 702.336 397, 704.531 397 C 705.294 397, 707.021 395.811, 708.369 394.358 C 709.870 392.739, 711.424 391.949, 712.383 392.317 C 713.409 392.711, 715.480 391.341, 718.402 388.334 C 722.499 384.119, 723.142 383.804, 726.400 384.415 C 729.425 384.983, 730.277 384.696, 732.222 382.455 C 734.159 380.222, 735.054 379.917, 738.205 380.419 C 741.341 380.919, 742.287 380.603, 744.360 378.367 C 746.697 375.848, 747.170 375.748, 754.535 376.221 C 761.719 376.682, 762.404 376.551, 764.310 374.358 C 766.359 372.002, 766.385 372, 790.500 372 C 814.615 372, 814.641 372.002, 816.690 374.358 C 818.596 376.551, 819.281 376.682, 826.465 376.221 C 833.830 375.748, 834.303 375.848, 836.640 378.367 C 838.713 380.603, 839.659 380.919, 842.795 380.419 C 845.938 379.918, 846.841 380.223, 848.753 382.426 C 850.672 384.638, 851.562 384.934, 854.753 384.426 C 857.935 383.919, 858.835 384.215, 860.725 386.393 C 862.116 387.997, 863.544 388.728, 864.539 388.347 C 865.598 387.940, 867.620 389.270, 870.591 392.327 C 873.518 395.339, 875.591 396.711, 876.617 396.317 C 877.574 395.950, 879.121 396.730, 880.599 398.324 C 882.057 399.896, 883.629 400.696, 884.560 400.339 C 885.588 399.944, 888.300 401.976, 892.687 406.428 C 896.932 410.736, 899.800 412.907, 900.762 412.538 C 902.829 411.745, 905.161 413.919, 904.494 416.017 C 904.099 417.264, 906.942 420.733, 914.594 428.338 C 921.797 435.498, 925.053 439.418, 924.656 440.453 C 924.305 441.368, 925.118 442.956, 926.676 444.401 C 928.288 445.895, 929.052 447.422, 928.676 448.401 C 928.301 449.379, 929.064 450.906, 930.676 452.401 C 932.270 453.879, 933.050 455.426, 932.683 456.383 C 932.289 457.410, 933.665 459.485, 936.687 462.422 L 941.290 466.897 940.715 472.473 C 940.191 477.550, 940.369 478.261, 942.707 480.429 C 945.139 482.684, 945.249 483.220, 944.779 490.535 C 944.318 497.719, 944.449 498.404, 946.642 500.310 L 949 502.361 949 530.500 L 949 558.639 946.642 560.690 C 944.449 562.596, 944.318 563.281, 944.779 570.465 C 945.250 577.804, 945.145 578.310, 942.672 580.603 C 941.063 582.095, 940.301 583.621, 940.676 584.599 C 941.054 585.582, 940.271 587.121, 938.610 588.661 C 936.342 590.764, 936.035 591.672, 936.593 594.642 C 937.194 597.849, 936.864 598.518, 932.666 602.598 C 929.659 605.520, 928.289 607.591, 928.683 608.617 C 929.050 609.574, 928.270 611.121, 926.676 612.599 C 925.091 614.070, 924.303 615.627, 924.666 616.573 C 925.056 617.589, 923.670 619.678, 920.673 622.591 C 917.789 625.394, 916.296 627.609, 916.657 628.549 C 917.452 630.620, 894.620 653.452, 892.549 652.657 C 891.609 652.296, 889.394 653.789, 886.591 656.673 C 883.710 659.637, 881.584 661.055, 880.591 660.673 C 879.598 660.292, 877.472 661.709, 874.591 664.673 C 871.620 667.730, 869.598 669.060, 868.539 668.653 C 867.544 668.272, 866.116 669.003, 864.725 670.607 C 862.835 672.785, 861.935 673.081, 858.753 672.574 C 855.562 672.066, 854.672 672.362, 852.753 674.574 C 850.841 676.777, 849.938 677.082, 846.795 676.581 C 843.659 676.081, 842.713 676.397, 840.640 678.633 C 838.303 681.152, 837.830 681.252, 830.465 680.779 C 823.281 680.318, 822.596 680.449, 820.690 682.642 L 818.639 685 792.500 685 L 766.361 685 764.244 682.566 C 762.328 680.361, 761.594 680.186, 756.479 680.714 C 751.282 681.251, 750.634 681.085, 748.371 678.644 C 746.287 676.396, 745.344 676.081, 742.205 676.581 C 739.054 677.083, 738.159 676.778, 736.222 674.545 C 734.277 672.304, 733.425 672.017, 730.400 672.585 C 727.142 673.196, 726.499 672.881, 722.402 668.666 C 719.480 665.659, 717.409 664.289, 716.383 664.683 C 715.426 665.050, 713.879 664.270, 712.401 662.676 C 710.930 661.091, 709.373 660.303, 708.427 660.666 C 707.411 661.056, 705.322 659.670, 702.409 656.673 C 699.602 653.786, 697.392 652.296, 696.449 652.658 C 694.395 653.446, 675.548 634.620, 676.336 632.567 C 676.705 631.604, 673.901 628.108, 668.329 622.586 C 662.564 616.873, 659.946 613.584, 660.342 612.552 C 660.695 611.631, 659.887 610.049, 658.324 608.599 C 656.712 607.105, 655.948 605.578, 656.324 604.599 C 656.699 603.621, 655.936 602.094, 654.324 600.599 C 652.730 599.121, 651.950 597.574, 652.317 596.617 C 652.711 595.590, 651.335 593.515, 648.313 590.578 L 643.710 586.103 644.289 580.488 C 644.817 575.375, 644.645 574.678, 642.365 572.696 C 639.886 570.541, 639.864 570.374, 640.116 556.234 C 640.361 542.533, 640.282 541.886, 638.186 540.418 L 636 538.887 636 269.443 L 636 0 598.500 0 L 561 0 560.986 280.750"/>
</svg>
